<svg xmlns="http://www.w3.org/2000/svg" xmlns:xlink="http://www.w3.org/1999/xlink" version="1.1" x="0px" y="0px" viewBox="0 0 80 100" style="enable-background:new 0 0 80 80;" xml:space="preserve"><g><path d="M61.9204,18.0796c-4.6787-4.6782-12.292-4.6792-16.9707,0L18.0796,44.9497c-4.6782,4.6787-4.6782,12.292,0,16.9707   c2.3394,2.3394,5.4121,3.5088,8.4854,3.5088c3.0728,0,6.146-1.1694,8.4854-3.5088l26.8701-26.8701   C66.5986,30.3716,66.5986,22.7583,61.9204,18.0796z M33.6362,60.5063c-3.8989,3.8979-10.2437,3.8989-14.1426,0   c-3.8984-3.8989-3.8984-10.2437,0-14.1426l12.728-12.728l14.1426,14.1426L33.6362,60.5063z M60.5063,33.6362l-12.728,12.728   L33.6357,32.2217l12.728-12.728c1.9497-1.9492,4.5103-2.9238,7.0713-2.9238c2.5605,0,5.1221,0.9746,7.0713,2.9238   C64.4048,23.3926,64.4048,29.7373,60.5063,33.6362z"/><path d="M60.1602,22.5601c-0.3091-0.458-0.9307-0.5791-1.3882-0.27c-0.458,0.3091-0.5786,0.9307-0.27,1.3882   c1.8501,2.7427,1.1235,6.479-1.6191,8.3291c-0.458,0.3091-0.5786,0.9307-0.27,1.3882c0.1934,0.2866,0.5088,0.4409,0.8301,0.4409   c0.1924,0,0.3867-0.0552,0.5581-0.1709C61.6582,31.1987,62.6265,26.2168,60.1602,22.5601z"/></g><text x="0" y="95" fill="#000000" font-size="5px" font-weight="bold" font-family="'Helvetica Neue', Helvetica, Arial-Unicode, Arial, Sans-serif">Created by Icon Lauk</text><text x="0" y="100" fill="#000000" font-size="5px" font-weight="bold" font-family="'Helvetica Neue', Helvetica, Arial-Unicode, Arial, Sans-serif">from the Noun Project</text></svg>