<svg xmlns:dc="http://purl.org/dc/elements/1.1/" xmlns:cc="http://creativecommons.org/ns#" xmlns:rdf="http://www.w3.org/1999/02/22-rdf-syntax-ns#" xmlns:svg="http://www.w3.org/2000/svg" xmlns="http://www.w3.org/2000/svg" xmlns:sodipodi="http://sodipodi.sourceforge.net/DTD/sodipodi-0.dtd" xmlns:inkscape="http://www.inkscape.org/namespaces/inkscape" viewBox="0 0 32 40" version="1.1" x="0px" y="0px"><g transform="translate(0,-1020.3622)"><path style="color:#000000;font-style:normal;font-variant:normal;font-weight:normal;font-stretch:normal;font-size:medium;line-height:normal;font-family:sans-serif;text-indent:0;text-align:start;text-decoration:none;text-decoration-line:none;text-decoration-style:solid;text-decoration-color:#000000;letter-spacing:normal;word-spacing:normal;text-transform:none;direction:ltr;block-progression:tb;writing-mode:lr-tb;baseline-shift:baseline;text-anchor:start;white-space:normal;clip-rule:nonzero;display:inline;overflow:visible;visibility:visible;opacity:1;isolation:auto;mix-blend-mode:normal;color-interpolation:sRGB;color-interpolation-filters:linearRGB;solid-color:#000000;solid-opacity:1;fill:#000000;fill-opacity:1;fill-rule:nonzero;stroke:none;stroke-width:0.99999994;stroke-linecap:round;stroke-linejoin:round;stroke-miterlimit:4;stroke-dasharray:none;stroke-dashoffset:0;stroke-opacity:1;color-rendering:auto;image-rendering:auto;shape-rendering:auto;text-rendering:auto;enable-background:accumulate" d="m 27.724609,1027.1953 -23.9062496,0.4668 a 0.50004997,0.50004997 0 0 0 -0.089844,0.012 l 0.089844,-0.01 c -2.2155839,0.043 -3.82140095,1.8201 -3.8183594,4.0195 l 0.01953125,13.2891 c 0.0030934,2.2367 1.76142775,4.3998 4.04882815,4.4394 l 23.6582026,0.4063 c 1.170144,0.02 2.238496,-0.6077 3.011719,-1.4805 0.773224,-0.8728 1.277313,-2.0107 1.259766,-3.1524 l -0.21875,-13.9453 c -0.03514,-2.2255 -1.810295,-4.0918 -4.054688,-4.0449 z m 0.01953,1 a 0.50004997,0.50004997 0 0 0 0.002,0 c 1.681779,-0.035 3.006212,1.3513 3.033203,3.0606 l 0.21875,13.9453 c 0.01269,0.8258 -0.382298,1.7666 -1.007813,2.4726 -0.625514,0.7061 -1.453113,1.1582 -2.246093,1.1446 l -23.6582035,-0.4063 c -1.6388481,-0.028 -3.0640571,-1.7408 -3.0664063,-3.4394 L 1,1031.6836 c -0.0024,-1.7358 1.1273017,-2.988 2.8378906,-3.0215 l 23.9062504,-0.4668 z"/><path style="color:#000000;font-style:normal;font-variant:normal;font-weight:normal;font-stretch:normal;font-size:medium;line-height:normal;font-family:sans-serif;text-indent:0;text-align:start;text-decoration:none;text-decoration-line:none;text-decoration-style:solid;text-decoration-color:#000000;letter-spacing:normal;word-spacing:normal;text-transform:none;direction:ltr;block-progression:tb;writing-mode:lr-tb;baseline-shift:baseline;text-anchor:start;white-space:normal;clip-rule:nonzero;display:inline;overflow:visible;visibility:visible;opacity:1;isolation:auto;mix-blend-mode:normal;color-interpolation:sRGB;color-interpolation-filters:linearRGB;solid-color:#000000;solid-opacity:1;fill:#000000;fill-opacity:1;fill-rule:evenodd;stroke:none;stroke-width:0.99999994px;stroke-linecap:butt;stroke-linejoin:miter;stroke-miterlimit:4;stroke-dasharray:none;stroke-dashoffset:0;stroke-opacity:1;color-rendering:auto;image-rendering:auto;shape-rendering:auto;text-rendering:auto;enable-background:accumulate" d="m 20.722656,1023.0449 c -2.771443,-0.2203 -6.136313,-0.1781 -9.320312,0.1328 -0.483472,0.047 -0.793122,0.4086 -0.96875,0.7285 -0.175629,0.32 -0.271334,0.6555 -0.34375,0.9083 -0.1772814,0.6194 -0.1179524,1.3609 -0.04883,1.996 0.06912,0.6351 0.171875,1.1485 0.171875,1.1485 l 0.980468,-0.1973 c 0,0 -0.09446,-0.4729 -0.158203,-1.0586 -0.06375,-0.5857 -0.07205,-1.3001 0.01758,-1.6133 0.07007,-0.2445 0.157886,-0.521 0.257813,-0.7031 0.09993,-0.182 0.15722,-0.2119 0.1875,-0.2148 3.124713,-0.3051 6.447452,-0.3453 9.144531,-0.1309 l 0.002,0 0.002,0 c 0.0084,6e-4 0.05766,0.015 0.148438,0.1348 0.09078,0.1199 0.186376,0.3116 0.265625,0.4922 0.158801,0.3621 0.25856,1.1727 0.279297,1.8476 0.02074,0.675 -0.01172,1.2266 -0.01172,1.2266 l 0.998047,0.061 c 0,0 0.03397,-0.5942 0.01172,-1.3183 -0.02225,-0.7241 -0.076,-1.5662 -0.361329,-2.2168 -0.08781,-0.2001 -0.203024,-0.4553 -0.384765,-0.6953 -0.180966,-0.239 -0.466775,-0.4962 -0.869141,-0.5274 z"/><path style="color:#000000;font-style:normal;font-variant:normal;font-weight:normal;font-stretch:normal;font-size:medium;line-height:normal;font-family:sans-serif;text-indent:0;text-align:start;text-decoration:none;text-decoration-line:none;text-decoration-style:solid;text-decoration-color:#000000;letter-spacing:normal;word-spacing:normal;text-transform:none;direction:ltr;block-progression:tb;writing-mode:lr-tb;baseline-shift:baseline;text-anchor:start;white-space:normal;clip-rule:nonzero;display:inline;overflow:visible;visibility:visible;opacity:1;isolation:auto;mix-blend-mode:normal;color-interpolation:sRGB;color-interpolation-filters:linearRGB;solid-color:#000000;solid-opacity:1;fill:#000000;fill-opacity:1;fill-rule:evenodd;stroke:none;stroke-width:1.00000024;stroke-linecap:round;stroke-linejoin:round;stroke-miterlimit:4;stroke-dasharray:none;stroke-dashoffset:0;stroke-opacity:1;color-rendering:auto;image-rendering:auto;shape-rendering:auto;text-rendering:auto;enable-background:accumulate" d="m 15.900391,1032.1465 c -0.680233,-0.018 -1.374674,0.069 -2.033203,0.2793 a 0.50005012,0.50005012 0 0 0 -0.0039,0 c -0.941457,0.3014 -1.887724,0.7419 -2.675781,1.4121 -0.868384,0.7386 -1.6699372,1.6763 -2.0976562,2.7969 -0.5178378,1.3612 -0.6070867,2.8889 -0.3632813,4.3007 0.1758264,1.0119 0.6665469,1.9297 1.234375,2.7149 0.4857125,0.6722 1.0938195,1.3697 1.9257815,1.7734 1.429694,0.6955 3.099444,0.9169 4.654297,0.7266 1.35322,-0.1657 2.593728,-0.8043 3.660156,-1.5293 0.81693,-0.5556 1.662688,-1.2565 2.158203,-2.2246 0.518872,-1.0108 0.566294,-2.1476 0.566406,-3.1582 0.01528,-0.8509 -0.01885,-1.7846 -0.375,-2.6582 -0.430662,-1.0515 -1.152875,-1.9832 -2.009765,-2.7012 -0.812925,-0.6807 -1.793849,-1.0557 -2.708985,-1.3652 -0.610643,-0.2073 -1.26318,-0.3506 -1.93164,-0.3672 z m -2.033203,0.2793 0.07031,-0.018 a 0.50005012,0.50005012 0 0 0 -0.07031,0.018 z m 2.005859,0.7207 a 0.50005012,0.50005012 0 0 0 0.002,0 c 0.541292,0.013 1.098096,0.1323 1.634766,0.3144 a 0.50005012,0.50005012 0 0 0 0.002,0 c 0.883768,0.2989 1.742635,0.6443 2.386719,1.1836 0.740867,0.6208 1.36685,1.4362 1.726562,2.3145 0.268967,0.6597 0.315482,1.461 0.300781,2.2676 a 0.50005012,0.50005012 0 0 0 0,0.01 c 0,0.9726 -0.06795,1.9509 -0.455078,2.7051 a 0.50005012,0.50005012 0 0 0 0,0 c -0.370408,0.725 -1.076801,1.3399 -1.832031,1.8535 -0.991148,0.6738 -2.103562,1.2268 -3.21875,1.3633 -1.373753,0.1681 -2.868995,-0.038 -4.095703,-0.6348 -0.591104,-0.2868 -1.111461,-0.8461 -1.552735,-1.457 a 0.50005012,0.50005012 0 0 0 -0.002,-0 c -0.509488,-0.7046 -0.9196609,-1.4993 -1.0585935,-2.2989 -0.2157852,-1.2495 -0.1277089,-2.613 0.3144535,-3.7754 0.344136,-0.9016 1.031058,-1.7276 1.810547,-2.3906 0.649404,-0.5523 1.47746,-0.9468 2.332031,-1.2207 8.56e-4,-3e-4 0.0011,-0 0.002,-0 a 0.50005012,0.50005012 0 0 0 0.002,0 c 0.538748,-0.1722 1.124637,-0.2461 1.701172,-0.2305 z"/><path style="color:#000000;font-style:normal;font-variant:normal;font-weight:normal;font-stretch:normal;font-size:medium;line-height:normal;font-family:sans-serif;text-indent:0;text-align:start;text-decoration:none;text-decoration-line:none;text-decoration-style:solid;text-decoration-color:#000000;letter-spacing:normal;word-spacing:normal;text-transform:none;direction:ltr;block-progression:tb;writing-mode:lr-tb;baseline-shift:baseline;text-anchor:start;white-space:normal;clip-rule:nonzero;display:inline;overflow:visible;visibility:visible;opacity:1;isolation:auto;mix-blend-mode:normal;color-interpolation:sRGB;color-interpolation-filters:linearRGB;solid-color:#000000;solid-opacity:1;fill:#000000;fill-opacity:1;fill-rule:evenodd;stroke:none;stroke-width:0.99999994px;stroke-linecap:round;stroke-linejoin:round;stroke-miterlimit:4;stroke-dasharray:none;stroke-dashoffset:0;stroke-opacity:1;color-rendering:auto;image-rendering:auto;shape-rendering:auto;text-rendering:auto;enable-background:accumulate" d="m 14.46875,1034.5957 a 0.50004997,0.50004997 0 0 0 -0.507812,0.5059 l 0.02344,2.1679 -1.867187,0.1 a 0.50004997,0.50004997 0 0 0 -0.470704,0.4551 l -0.234375,2.6485 a 0.50004997,0.50004997 0 0 0 0.484375,0.5429 l 2.16211,0.064 0.167968,2.2148 a 0.50004997,0.50004997 0 0 0 0.498047,0.4629 l 2.486329,0 a 0.50004997,0.50004997 0 0 0 0.5,-0.4824 l 0.07617,-2.2149 2.31836,0.062 a 0.50004997,0.50004997 0 0 0 0.511719,-0.5156 l -0.0918,-2.789 a 0.50004997,0.50004997 0 0 0 -0.498047,-0.4825 l -2.154297,-0.014 -0.03711,-2.1895 a 0.50004997,0.50004997 0 0 0 -0.492188,-0.4922 l -2.875,-0.045 z m 0.498047,1.0078 1.878906,0.029 0.03711,2.1953 a 0.50004997,0.50004997 0 0 0 0.496094,0.4922 l 2.16211,0.012 0.06055,1.7774 -2.283203,-0.062 a 0.50004997,0.50004997 0 0 0 -0.513671,0.4824 l -0.07617,2.2285 -1.541016,0 -0.166016,-2.2031 a 0.50004997,0.50004997 0 0 0 -0.484375,-0.4609 l -2.082031,-0.061 0.148438,-1.6894 1.914062,-0.1016 a 0.50004997,0.50004997 0 0 0 0.472656,-0.5039 l -0.02344,-2.1348 z"/><path style="color:#000000;font-style:normal;font-variant:normal;font-weight:normal;font-stretch:normal;font-size:medium;line-height:normal;font-family:sans-serif;text-indent:0;text-align:start;text-decoration:none;text-decoration-line:none;text-decoration-style:solid;text-decoration-color:#000000;letter-spacing:normal;word-spacing:normal;text-transform:none;direction:ltr;block-progression:tb;writing-mode:lr-tb;baseline-shift:baseline;text-anchor:start;white-space:normal;clip-rule:nonzero;display:inline;overflow:visible;visibility:visible;opacity:1;isolation:auto;mix-blend-mode:normal;color-interpolation:sRGB;color-interpolation-filters:linearRGB;solid-color:#000000;solid-opacity:1;fill:#000000;fill-opacity:1;fill-rule:evenodd;stroke:none;stroke-width:0.49960631;stroke-linecap:round;stroke-linejoin:round;stroke-miterlimit:4;stroke-dasharray:none;stroke-dashoffset:0;stroke-opacity:1;color-rendering:auto;image-rendering:auto;shape-rendering:auto;text-rendering:auto;enable-background:accumulate" d="m 4.0976562,1029.5703 a 0.24982814,0.24982814 0 0 0 -0.068359,0.01 c 0,0 -0.2291663,0.053 -0.5019531,0.1426 -0.2727869,0.09 -0.5866145,0.2037 -0.8125,0.3965 -0.3483226,0.2972 -0.5401449,0.7137 -0.6679688,1.1016 -0.099688,0.3009 -0.1321574,0.6956 -0.1503906,1.0332 -0.018233,0.3375 -0.015625,0.6132 -0.015625,0.6132 a 0.25001682,0.25001682 0 0 0 0.5,-0.01 c 0,0 -0.00362,-0.2599 0.013672,-0.5801 0.017294,-0.3202 0.061853,-0.7058 0.1269532,-0.9023 a 0.24982814,0.24982814 0 0 0 0,-0 c 0.1133099,-0.3438 0.2803763,-0.6765 0.5175781,-0.8789 0.1044451,-0.089 0.395441,-0.2188 0.6445313,-0.3008 0.2490902,-0.082 0.4589843,-0.1308 0.4589843,-0.1308 a 0.24982814,0.24982814 0 0 0 -0.044922,-0.4942 z"/><path style="color:#000000;font-style:normal;font-variant:normal;font-weight:normal;font-stretch:normal;font-size:medium;line-height:normal;font-family:sans-serif;text-indent:0;text-align:start;text-decoration:none;text-decoration-line:none;text-decoration-style:solid;text-decoration-color:#000000;letter-spacing:normal;word-spacing:normal;text-transform:none;direction:ltr;block-progression:tb;writing-mode:lr-tb;baseline-shift:baseline;text-anchor:start;white-space:normal;clip-rule:nonzero;display:inline;overflow:visible;visibility:visible;opacity:1;isolation:auto;mix-blend-mode:normal;color-interpolation:sRGB;color-interpolation-filters:linearRGB;solid-color:#000000;solid-opacity:1;fill:#000000;fill-opacity:1;fill-rule:evenodd;stroke:none;stroke-width:0.49960631;stroke-linecap:round;stroke-linejoin:round;stroke-miterlimit:4;stroke-dasharray:none;stroke-dashoffset:0;stroke-opacity:1;color-rendering:auto;image-rendering:auto;shape-rendering:auto;text-rendering:auto;enable-background:accumulate" d="m 29.857422,1044.3301 a 0.24982814,0.24982814 0 0 0 -0.166016,0.088 l -2.642578,3.0215 a 0.24987155,0.24987155 0 0 0 0.376953,0.3281 l 2.642578,-3.0215 a 0.24982814,0.24982814 0 0 0 -0.210937,-0.416 z"/><path style="color:#000000;font-style:normal;font-variant:normal;font-weight:normal;font-stretch:normal;font-size:medium;line-height:normal;font-family:sans-serif;text-indent:0;text-align:start;text-decoration:none;text-decoration-line:none;text-decoration-style:solid;text-decoration-color:#000000;letter-spacing:normal;word-spacing:normal;text-transform:none;direction:ltr;block-progression:tb;writing-mode:lr-tb;baseline-shift:baseline;text-anchor:start;white-space:normal;clip-rule:nonzero;display:inline;overflow:visible;visibility:visible;opacity:1;isolation:auto;mix-blend-mode:normal;color-interpolation:sRGB;color-interpolation-filters:linearRGB;solid-color:#000000;solid-opacity:1;fill:#000000;fill-opacity:1;fill-rule:evenodd;stroke:none;stroke-width:0.49960631;stroke-linecap:round;stroke-linejoin:round;stroke-miterlimit:4;stroke-dasharray:none;stroke-dashoffset:0;stroke-opacity:1;color-rendering:auto;image-rendering:auto;shape-rendering:auto;text-rendering:auto;enable-background:accumulate" d="m 28.917969,1043.75 a 0.24982814,0.24982814 0 0 0 -0.171875,0.076 l -1.617188,1.6211 a 0.24982814,0.24982814 0 1 0 0.353516,0.3515 l 1.617187,-1.6191 a 0.24982814,0.24982814 0 0 0 -0.18164,-0.4297 z"/><path style="color:#000000;font-style:normal;font-variant:normal;font-weight:normal;font-stretch:normal;font-size:medium;line-height:normal;font-family:sans-serif;text-indent:0;text-align:start;text-decoration:none;text-decoration-line:none;text-decoration-style:solid;text-decoration-color:#000000;letter-spacing:normal;word-spacing:normal;text-transform:none;direction:ltr;block-progression:tb;writing-mode:lr-tb;baseline-shift:baseline;text-anchor:start;white-space:normal;clip-rule:nonzero;display:inline;overflow:visible;visibility:visible;opacity:1;isolation:auto;mix-blend-mode:normal;color-interpolation:sRGB;color-interpolation-filters:linearRGB;solid-color:#000000;solid-opacity:1;fill:#000000;fill-opacity:1;fill-rule:evenodd;stroke:none;stroke-width:0.49960631;stroke-linecap:round;stroke-linejoin:round;stroke-miterlimit:4;stroke-dasharray:none;stroke-dashoffset:0;stroke-opacity:1;color-rendering:auto;image-rendering:auto;shape-rendering:auto;text-rendering:auto;enable-background:accumulate" d="m 28.072266,1043.0332 a 0.24982814,0.24982814 0 0 0 -0.150391,0.07 l -1.109375,1.0508 a 0.24982814,0.24982814 0 1 0 0.34375,0.3613 l 1.109375,-1.0488 a 0.24982814,0.24982814 0 0 0 -0.193359,-0.4336 z"/></g><text x="0" y="47" fill="#000000" font-size="5px" font-weight="bold" font-family="'Helvetica Neue', Helvetica, Arial-Unicode, Arial, Sans-serif">Created by P Thanga Vignesh</text><text x="0" y="52" fill="#000000" font-size="5px" font-weight="bold" font-family="'Helvetica Neue', Helvetica, Arial-Unicode, Arial, Sans-serif">from the Noun Project</text></svg>